<svg width="25" height="25" viewBox="0 0 25 25" fill="none" xmlns="http://www.w3.org/2000/svg">
<circle cx="12.5" cy="12.5" r="12.5" fill="#0076C4"/>
<path fill-rule="evenodd" clip-rule="evenodd" d="M12.25 6.5C11.6977 6.5 11.25 6.94772 11.25 7.5V11.25H7.5C6.94772 11.25 6.5 11.6977 6.5 12.25V12.75C6.5 13.3023 6.94772 13.75 7.5 13.75H11.25V17.5C11.25 18.0523 11.6977 18.5 12.25 18.5H12.75C13.3023 18.5 13.75 18.0523 13.75 17.5V13.75H17.5C18.0523 13.75 18.5 13.3023 18.5 12.75V12.25C18.5 11.6977 18.0523 11.25 17.5 11.25H13.75V7.5C13.75 6.94772 13.3023 6.5 12.75 6.5H12.25Z" fill="white"/>
</svg>
