<svg width="1440" height="532" viewBox="0 80 1440 500" fill="none" xmlns="http://www.w3.org/2000/svg">
<g filter="url(#filter0_d)">
<rect y="59" width="1440" height="393" fill="#3751FF"/>
</g>
<path opacity="0.1" d="M1533 99.5C1533 237.295 1421.3 349 1283.5 349C1145.7 349 1034 237.295 1034 99.5C1034 -38.295 1145.7 -150 1283.5 -150C1421.3 -150 1533 -38.295 1533 99.5ZM1124.16 99.5C1124.16 187.503 1195.5 258.844 1283.5 258.844C1371.5 258.844 1442.84 187.503 1442.84 99.5C1442.84 11.497 1371.5 -59.8436 1283.5 -59.8436C1195.5 -59.8436 1124.16 11.497 1124.16 99.5Z" fill="black"/>
<defs>
<filter id="filter0_d" x="-60" y="19" width="1560" height="513" filterUnits="userSpaceOnUse" color-interpolation-filters="sRGB">
<feFlood flood-opacity="0" result="BackgroundImageFix"/>
<feColorMatrix in="SourceAlpha" type="matrix" values="0 0 0 0 0 0 0 0 0 0 0 0 0 0 0 0 0 0 127 0"/>
<feOffset dy="20"/>
<feGaussianBlur stdDeviation="30"/>
<feColorMatrix type="matrix" values="0 0 0 0 0 0 0 0 0 0 0 0 0 0 0 0 0 0 0.1 0"/>
<feBlend mode="normal" in2="BackgroundImageFix" result="effect1_dropShadow"/>
<feBlend mode="normal" in="SourceGraphic" in2="effect1_dropShadow" result="shape"/>
</filter>
</defs>
</svg>
