<svg width="40" height="40" viewBox="0 0 40 40" fill="none" xmlns="http://www.w3.org/2000/svg">
<circle cx="20" cy="20" r="20" fill="white"/>
<path fill-rule="evenodd" clip-rule="evenodd" d="M20 9C17.0125 9 16.6381 9.01263 15.4642 9.06662C14.2938 9.11945 13.4944 9.30552 12.7949 9.57774C12.0713 9.85914 11.458 10.2347 10.8458 10.8458C10.2347 11.458 9.85914 12.0713 9.57774 12.7949C9.30552 13.4944 9.11945 14.2938 9.06662 15.4642C9.01263 16.6381 9 17.0125 9 20C9 22.9875 9.01263 23.3619 9.06662 24.5358C9.11945 25.7062 9.30552 26.5056 9.57774 27.2051C9.85914 27.9287 10.2347 28.542 10.8458 29.1542C11.458 29.7653 12.0713 30.142 12.7949 30.4223C13.4944 30.6945 14.2938 30.8805 15.4642 30.9334C16.6381 30.9874 17.0125 31 20 31C22.9875 31 23.3619 30.9874 24.5358 30.9334C25.7062 30.8805 26.5056 30.6945 27.2051 30.4223C27.9287 30.142 28.542 29.7653 29.1542 29.1542C29.7653 28.542 30.1409 27.9287 30.4223 27.2051C30.6945 26.5056 30.8805 25.7062 30.9334 24.5358C30.9874 23.3619 31 22.9875 31 20C31 17.0125 30.9874 16.6381 30.9334 15.4642C30.8805 14.2938 30.6945 13.4944 30.4223 12.7949C30.1409 12.0713 29.7653 11.458 29.1542 10.8458C28.542 10.2347 27.9287 9.85914 27.2051 9.57774C26.5056 9.30552 25.7062 9.11945 24.5358 9.06662C23.3619 9.01263 22.9875 9 20 9ZM20 11C22.9312 11 23.2786 11.0103 24.4364 11.063C25.5071 11.1123 26.0883 11.2912 26.4746 11.4413C26.987 11.6408 27.3527 11.8781 27.7367 12.2633C28.1219 12.6473 28.3592 13.013 28.5587 13.5254C28.7088 13.9117 28.8877 14.4929 28.937 15.5636C28.9897 16.7214 29 17.0688 29 20C29 22.9312 28.9897 23.2786 28.937 24.4364C28.8877 25.5071 28.7088 26.0883 28.5587 26.4746C28.3592 26.987 28.1219 27.3527 27.7367 27.7367C27.3527 28.1219 26.987 28.3592 26.4746 28.5587C26.0883 28.7088 25.5071 28.8877 24.4364 28.937C23.2786 28.9897 22.9312 29 20 29C17.0688 29 16.7214 28.9897 15.5636 28.937C14.4929 28.8877 13.9117 28.7088 13.5254 28.5587C13.013 28.3592 12.6473 28.1219 12.2633 27.7367C11.8781 27.3527 11.6408 26.987 11.4413 26.4746C11.2912 26.0883 11.1123 25.5071 11.063 24.4364C11.0103 23.2786 11 22.9312 11 20C11 17.0688 11.0103 16.7214 11.063 15.5636C11.1123 14.4929 11.2912 13.9117 11.4413 13.5254C11.6408 13.013 11.8781 12.6473 12.2633 12.2633C12.6473 11.8781 13.013 11.6408 13.5254 11.4413C13.9117 11.2912 14.4929 11.1123 15.5636 11.063C16.7214 11.0103 17.0688 11 20 11Z" fill="#CE1432"/>
<path fill-rule="evenodd" clip-rule="evenodd" d="M20 24C17.7907 24 16 22.2096 16 20.0006C16 17.7917 17.7907 16 20 16C22.2093 16 24 17.7917 24 20.0006C24 22.2096 22.2093 24 20 24ZM20 14C16.6865 14 14 16.6865 14 20C14 23.3135 16.6865 26 20 26C23.3135 26 26 23.3135 26 20C26 16.6865 23.3135 14 20 14Z" fill="#CE1432"/>
<path fill-rule="evenodd" clip-rule="evenodd" d="M27.3457 14.2816C27.3457 15.011 26.7542 15.6014 26.026 15.6014C25.2966 15.6014 24.7051 15.011 24.7051 14.2816C24.7051 13.5523 25.2966 12.9619 26.026 12.9619C26.7542 12.9619 27.3457 13.5523 27.3457 14.2816Z" fill="#CE1432"/>
</svg>
