<svg width="40" height="40" viewBox="0 0 40 40" fill="none" xmlns="http://www.w3.org/2000/svg">
<circle cx="20" cy="20" r="20" fill="white"/>
<path fill-rule="evenodd" clip-rule="evenodd" d="M29.0079 27.6202H25.2489V22.1292C25.2489 20.6912 24.6609 19.7113 23.3679 19.7113C22.3789 19.7113 21.8289 20.3722 21.5729 21.0112C21.4769 21.2393 21.4919 21.5583 21.4919 21.8783V27.6202H17.7679C17.7679 27.6202 17.8159 17.8932 17.7679 17.0093H21.4919V18.6743C21.7119 17.9453 22.9019 16.9062 24.8019 16.9062C27.1569 16.9062 29.0079 18.4323 29.0079 21.7203V27.6202ZM14.002 15.681H13.978C12.778 15.681 12 14.87 12 13.843C12 12.794 12.802 12 14.025 12C15.248 12 16 12.792 16.024 13.84C16.024 14.867 15.248 15.681 14.002 15.681ZM12.428 27.62H15.744V17.009H12.428V27.62Z" fill="#CE1432"/>
</svg>
