<svg width="40" height="40" viewBox="0 0 40 40" fill="none" xmlns="http://www.w3.org/2000/svg">
<circle cx="20" cy="20" r="20" fill="white"/>
<mask id="mask0_336_1003" style="mask-type:luminance" maskUnits="userSpaceOnUse" x="12" y="11" width="18" height="18">
<path fill-rule="evenodd" clip-rule="evenodd" d="M12 11H29.0078V28.0117H12V11Z" fill="white"/>
</mask>
<g mask="url(#mask0_336_1003)">
<path fill-rule="evenodd" clip-rule="evenodd" d="M12.007 11V14.247C19.586 14.252 25.746 20.424 25.753 28.012H29.008C29.006 23.322 27.1 19.074 24.021 15.991C20.941 12.909 16.694 11.002 12.007 11ZM12.002 16.785V20.032C14.121 20.034 16.128 20.867 17.627 22.37C19.129 23.869 19.957 25.878 19.961 28.006V28.012H23.224C23.221 24.917 21.963 22.114 19.93 20.08C17.898 18.046 15.095 16.786 12.002 16.785ZM15.855 24.1503C16.267 24.5623 16.518 25.1203 16.52 25.7413C16.518 26.3623 16.267 26.9213 15.857 27.3303L15.855 27.3313C15.445 27.7403 14.882 27.9913 14.258 27.9913C13.633 27.9913 13.073 27.7393 12.662 27.3303C12.253 26.9213 12 26.3633 12 25.7413C12 25.1203 12.253 24.5613 12.662 24.1493V24.1503C13.073 23.7413 13.633 23.4883 14.258 23.4883C14.882 23.4883 15.445 23.7413 15.855 24.1503Z" fill="#CE1432"/>
</g>
</svg>
