<?xml version="1.0" encoding="utf-8"?>
<svg viewBox="0 0 40 40" xmlns="http://www.w3.org/2000/svg">
  <g class="layer">
    <title>Layer 1</title>
    <circle cx="20" cy="20" fill="white" id="svg_2" r="20"/>
    <path class="cls-1" d="M 24.659 28.849 C 24.622 28.801 24.6 28.76 24.57 28.703 C 24.541 28.655 24.504 28.606 24.474 28.557 L 23.718 27.398 C 23.658 27.301 23.592 27.203 23.525 27.106 L 23.154 26.53 C 22.672 25.768 22.145 24.99 21.656 24.212 L 20.9 23.052 C 20.833 22.955 20.774 22.866 20.707 22.761 L 19.394 20.742 C 19.276 20.539 19.135 20.369 19.016 20.166 C 18.875 19.923 18.445 19.282 18.26 19.007 L 16.562 16.388 C 15.864 15.318 15.093 14.151 14.404 13.072 C 14.374 13.024 14.337 12.983 14.307 12.926 L 12.624 10.324 L 15.271 10.324 C 15.308 10.332 16.465 12.132 16.606 12.351 L 17.362 13.51 C 17.659 13.956 18.008 14.532 18.297 14.945 C 18.497 15.237 18.868 15.861 19.053 16.104 C 19.187 16.291 19.298 16.494 19.431 16.688 C 19.565 16.883 19.676 17.069 19.802 17.264 L 20.751 18.715 C 20.818 18.812 20.87 18.893 20.937 18.999 L 21.308 19.574 C 21.367 19.672 21.434 19.769 21.5 19.866 C 21.804 20.345 22.153 20.855 22.442 21.317 C 22.724 21.771 23.087 22.298 23.384 22.769 C 23.443 22.858 23.51 22.955 23.569 23.052 L 24.504 24.496 C 24.57 24.593 24.63 24.682 24.696 24.787 C 24.823 24.974 24.934 25.185 25.067 25.363 C 25.208 25.549 25.312 25.76 25.445 25.947 L 26.009 26.814 C 26.076 26.92 26.128 27.009 26.194 27.106 C 26.328 27.301 26.447 27.487 26.565 27.682 L 27.225 28.695 C 27.247 28.736 27.285 28.792 27.307 28.833 L 24.637 28.833 L 24.659 28.849 Z M 17.815 20.985 L 16.235 23.012 C 16.146 23.101 16.087 23.215 16.005 23.312 L 14.878 24.755 C 14.797 24.86 14.737 24.958 14.648 25.047 C 14.559 25.136 14.5 25.241 14.426 25.339 C 14.337 25.444 14.277 25.525 14.196 25.639 L 13.973 25.922 C 13.899 26.02 13.825 26.109 13.751 26.206 C 13.706 26.263 13.699 26.287 13.64 26.352 C 13.588 26.409 13.573 26.449 13.529 26.498 C 13.365 26.684 13.232 26.895 13.076 27.082 L 12.505 27.803 C 12.468 27.86 12.431 27.901 12.387 27.957 L 11.934 28.541 C 11.853 28.638 11.793 28.728 11.712 28.825 C 11.63 28.93 11.578 29.019 11.482 29.117 L 10.807 29.984 C 10.748 30.073 10.629 30.171 10.577 30.284 L 12.268 30.284 C 12.327 30.179 12.572 29.879 12.661 29.773 C 12.869 29.53 13.046 29.255 13.254 29.011 L 14.144 27.868 C 14.181 27.82 14.211 27.779 14.24 27.738 C 14.315 27.649 14.366 27.568 14.433 27.479 C 14.478 27.422 14.5 27.414 14.537 27.357 C 14.567 27.309 14.596 27.276 14.633 27.228 C 14.767 27.049 15.078 26.636 15.227 26.466 C 15.301 26.376 15.353 26.295 15.42 26.206 L 15.716 25.833 C 15.761 25.776 15.775 25.752 15.813 25.704 L 16.206 25.201 C 16.272 25.112 16.339 25.039 16.398 24.941 L 16.599 24.69 C 16.599 24.69 16.665 24.609 16.695 24.56 L 17.778 23.166 C 17.844 23.085 17.919 22.996 17.978 22.915 L 18.275 22.534 C 18.312 22.485 18.341 22.461 18.371 22.412 C 18.43 22.323 18.512 22.25 18.564 22.152 C 18.601 22.177 18.63 22.225 18.653 22.266 L 20.217 24.666 C 20.603 25.249 20.996 25.833 21.382 26.425 L 21.879 27.195 C 21.93 27.284 21.99 27.366 22.042 27.438 L 22.702 28.452 C 22.754 28.541 22.813 28.622 22.865 28.711 C 22.917 28.801 22.976 28.873 23.028 28.971 C 23.058 29.019 23.072 29.052 23.11 29.1 L 23.273 29.352 C 23.391 29.563 23.554 29.79 23.681 30 C 23.725 30.073 23.814 30.187 23.844 30.26 L 29.969 30.26 C 29.658 29.733 29.287 29.23 28.968 28.711 L 27.715 26.782 C 27.47 26.393 27.203 26.012 26.958 25.622 L 22.435 18.658 C 22.353 18.529 22.264 18.407 22.183 18.277 C 22.123 18.18 21.968 17.969 21.93 17.88 C 22.057 17.685 22.22 17.499 22.361 17.312 L 23.021 16.469 C 23.25 16.194 23.443 15.91 23.681 15.626 C 23.844 15.432 23.955 15.261 24.118 15.075 L 24.993 13.956 C 25.193 13.672 25.579 13.218 25.809 12.91 C 25.831 12.878 25.838 12.861 25.861 12.829 L 26.521 11.986 C 26.565 11.929 26.587 11.905 26.632 11.856 L 27.403 10.867 C 27.529 10.737 28.085 9.975 28.278 9.748 L 28.938 8.897 C 28.745 8.873 27.67 8.889 27.322 8.897 C 27.188 8.897 27.151 9.035 27.062 9.132 L 26.105 10.364 C 26.061 10.421 26.054 10.446 26.002 10.494 C 25.942 10.551 25.935 10.583 25.89 10.64 L 24.385 12.562 C 24.192 12.78 23.844 13.275 23.636 13.518 C 23.592 13.567 23.577 13.599 23.532 13.656 L 22.242 15.31 C 22.175 15.407 22.108 15.488 22.027 15.586 L 21.382 16.421 C 21.345 16.469 21.308 16.502 21.27 16.55 L 21.159 16.696 C 21.159 16.696 21.107 16.631 21.085 16.591 C 20.803 16.137 20.499 15.707 20.225 15.253 L 17.385 10.851 C 17.207 10.608 17.081 10.356 16.91 10.121 C 16.739 9.886 16.599 9.619 16.435 9.383 C 16.376 9.302 16.332 9.229 16.272 9.14 C 16.235 9.092 16.154 8.913 16.102 8.905 L 9.969 8.905 C 10.117 9.165 10.295 9.408 10.451 9.659 L 10.822 10.227 C 10.859 10.291 10.903 10.356 10.948 10.421 L 12.906 13.437 C 13.069 13.688 13.239 13.948 13.395 14.199 L 14.381 15.707 C 14.552 15.967 14.7 16.202 14.871 16.469 L 16.094 18.35 C 16.176 18.472 16.25 18.61 16.339 18.723 C 16.473 18.91 16.576 19.096 16.71 19.291 L 17.815 20.993 L 17.815 20.985 Z" fill="#ce1432" id="svg_3"/>
  </g>
</svg>